<svg width="20" height="20" viewBox="0 0 20 20" fill="none" xmlns="http://www.w3.org/2000/svg">
<rect width="20" height="20" rx="4" fill="#C51A1A"/>
<path fill-rule="evenodd" clip-rule="evenodd" d="M12.3288 13.6574V15.4999C12.3288 15.7759 12.1163 16 11.8545 16H5.47432C5.21254 16 5 15.7764 5 15.4999V4.50009C5 4.22408 5.21205 4 5.47432 4H11.855C12.1168 4 12.3293 4.22357 12.3293 4.50009V6.34264H11.3807L11.3802 5.0002H5.94821V14.9998H11.3802V13.6574H12.3288ZM14.1184 10.5001L13.0157 11.6627L13.686 12.3694L15.5979 10.3537C15.7832 10.1584 15.7832 9.84177 15.5979 9.64697L13.6865 7.63074L13.0162 8.33743L14.1189 9.50001H7.95999V10.5002L14.1184 10.5001Z" fill="white"/>
</svg>
