<svg width="40" height="40" viewBox="0 0 40 40" fill="none" xmlns="http://www.w3.org/2000/svg">
<rect width="40" height="40" rx="4" fill="#C51A1A"/>
<path fill-rule="evenodd" clip-rule="evenodd" d="M11.4419 13.7471C10.7033 13.7471 10.1047 14.3457 10.1047 15.0843V28.1253C10.1047 28.8637 10.7033 29.4625 11.4419 29.4625H28.5581C29.2967 29.4625 29.8953 28.8637 29.8953 28.1253V19.4652C29.8953 18.7267 29.2967 18.128 28.5581 18.128H21.0849C20.1472 18.128 19.2657 17.6811 18.7117 16.9247L16.7846 14.294C16.5327 13.9502 16.132 13.7471 15.7058 13.7471H11.4419ZM8.5 15.0843C8.5 13.4595 9.81712 12.1424 11.4419 12.1424H15.7058C16.6435 12.1424 17.5249 12.5894 18.079 13.3458L20.0061 15.9764C20.258 16.3202 20.6587 16.5234 21.0849 16.5234H28.5581C30.1829 16.5234 31.5 17.8405 31.5 19.4652V28.1253C31.5 29.75 30.1829 31.0671 28.5581 31.0671H11.4419C9.81712 31.0671 8.5 29.75 8.5 28.1253V15.0843Z" fill="white"/>
<path fill-rule="evenodd" clip-rule="evenodd" d="M10.1047 9.73543C10.1047 9.29232 10.4639 8.93311 10.907 8.93311H17.3105C18.2481 8.93311 19.1296 9.38007 19.6837 10.1365L21.6107 12.7671C21.8627 13.1109 22.2633 13.3141 22.6895 13.3141H30.1628C30.6059 13.3141 30.9651 13.6733 30.9651 14.1164C30.9651 14.5595 30.6059 14.9187 30.1628 14.9187H22.6895C21.7519 14.9187 20.8704 14.4718 20.3163 13.7154L18.3893 11.0847C18.1373 10.7409 17.7367 10.5378 17.3105 10.5378H10.907C10.4639 10.5378 10.1047 10.1785 10.1047 9.73543Z" fill="white"/>
</svg>
