<svg width="40" height="40" viewBox="0 0 40 40" fill="none" xmlns="http://www.w3.org/2000/svg">
<rect width="40" height="40" rx="4" fill="white"/>
<path fill-rule="evenodd" clip-rule="evenodd" d="M11.4419 13.7469C10.7033 13.7469 10.1047 14.3456 10.1047 15.0841V28.1251C10.1047 28.8636 10.7033 29.4624 11.4419 29.4624H28.5581C29.2967 29.4624 29.8953 28.8636 29.8953 28.1251V19.4651C29.8953 18.7266 29.2967 18.1279 28.5581 18.1279H21.0849C20.1472 18.1279 19.2657 17.6809 18.7117 16.9246L16.7846 14.2939C16.5327 13.9501 16.132 13.7469 15.7058 13.7469H11.4419ZM8.5 15.0841C8.5 13.4594 9.81712 12.1423 11.4419 12.1423H15.7058C16.6435 12.1423 17.5249 12.5892 18.079 13.3456L20.0061 15.9763C20.258 16.3201 20.6587 16.5233 21.0849 16.5233H28.5581C30.1829 16.5233 31.5 17.8404 31.5 19.4651V28.1251C31.5 29.7499 30.1829 31.067 28.5581 31.067H11.4419C9.81712 31.067 8.5 29.7499 8.5 28.1251V15.0841Z" fill="#C51A1A"/>
<path fill-rule="evenodd" clip-rule="evenodd" d="M10.1047 9.73531C10.1047 9.2922 10.4639 8.93298 10.907 8.93298H17.3105C18.2481 8.93298 19.1296 9.37994 19.6837 10.1363L21.6107 12.767C21.8627 13.1108 22.2633 13.3139 22.6895 13.3139H30.1628C30.6059 13.3139 30.9651 13.6732 30.9651 14.1163C30.9651 14.5594 30.6059 14.9186 30.1628 14.9186H22.6895C21.7519 14.9186 20.8704 14.4716 20.3163 13.7153L18.3893 11.0846C18.1373 10.7408 17.7367 10.5376 17.3105 10.5376H10.907C10.4639 10.5376 10.1047 10.1784 10.1047 9.73531Z" fill="#C51A1A"/>
</svg>
