<svg width="21" height="20" viewBox="0 0 21 20" fill="none" xmlns="http://www.w3.org/2000/svg">
<ellipse cx="10.1302" cy="10" rx="10.1302" ry="10" fill="#C51A1A"/>
<path d="M6.41414 7.4C6.41414 7.04 6.49014 6.716 6.64214 6.428C6.80214 6.14 7.02614 5.912 7.31414 5.744C7.60214 5.568 7.93414 5.48 8.31014 5.48C8.69414 5.48 9.02614 5.568 9.30614 5.744C9.59414 5.912 9.81414 6.14 9.96614 6.428C10.1261 6.716 10.2061 7.04 10.2061 7.4C10.2061 7.752 10.1261 8.076 9.96614 8.372C9.81414 8.66 9.59414 8.892 9.30614 9.068C9.02614 9.236 8.69414 9.32 8.31014 9.32C7.93414 9.32 7.60214 9.236 7.31414 9.068C7.02614 8.892 6.80214 8.66 6.64214 8.372C6.49014 8.076 6.41414 7.752 6.41414 7.4ZM7.26614 7.4C7.26614 7.6 7.30614 7.788 7.38614 7.964C7.47414 8.14 7.59414 8.28 7.74614 8.384C7.90614 8.488 8.09414 8.54 8.31014 8.54C8.53414 8.54 8.72214 8.488 8.87414 8.384C9.02614 8.28 9.14214 8.14 9.22214 7.964C9.31014 7.788 9.35414 7.6 9.35414 7.4C9.35414 7.192 9.31014 7.004 9.22214 6.836C9.14214 6.66 9.02614 6.52 8.87414 6.416C8.72214 6.312 8.53414 6.26 8.31014 6.26C8.09414 6.26 7.90614 6.312 7.74614 6.416C7.59414 6.52 7.47414 6.66 7.38614 6.836C7.30614 7.004 7.26614 7.192 7.26614 7.4ZM10.7941 12.2C10.7941 11.84 10.8701 11.516 11.0221 11.228C11.1821 10.94 11.4061 10.712 11.6941 10.544C11.9821 10.368 12.3141 10.28 12.6901 10.28C13.0741 10.28 13.4061 10.368 13.6861 10.544C13.9741 10.712 14.1941 10.94 14.3461 11.228C14.5061 11.516 14.5861 11.84 14.5861 12.2C14.5861 12.552 14.5061 12.876 14.3461 13.172C14.1941 13.46 13.9741 13.692 13.6861 13.868C13.4061 14.036 13.0741 14.12 12.6901 14.12C12.3141 14.12 11.9821 14.036 11.6941 13.868C11.4061 13.692 11.1821 13.46 11.0221 13.172C10.8701 12.876 10.7941 12.552 10.7941 12.2ZM11.6461 12.2C11.6461 12.4 11.6861 12.588 11.7661 12.764C11.8541 12.94 11.9741 13.08 12.1261 13.184C12.2861 13.288 12.4741 13.34 12.6901 13.34C12.9141 13.34 13.1021 13.288 13.2541 13.184C13.4061 13.08 13.5221 12.94 13.6021 12.764C13.6901 12.588 13.7341 12.4 13.7341 12.2C13.7341 11.992 13.6901 11.804 13.6021 11.636C13.5221 11.46 13.4061 11.32 13.2541 11.216C13.1021 11.112 12.9141 11.06 12.6901 11.06C12.4741 11.06 12.2861 11.112 12.1261 11.216C11.9741 11.32 11.8541 11.46 11.7661 11.636C11.6861 11.804 11.6461 11.992 11.6461 12.2ZM12.7501 5.6H13.6501L8.25014 14H7.35014L12.7501 5.6Z" fill="white"/>
</svg>
