<svg width="20" height="20" viewBox="0 0 20 20" fill="none" xmlns="http://www.w3.org/2000/svg">
<path d="M9.99992 20C6.93302 20 4.19946 18.6224 2.3559 16.4444C2.28906 16.3776 2.24479 16.3333 2.20052 16.2665C0.822046 14.5555 0 12.3776 0 10C0 4.48868 4.48868 0 10 0C15.5114 0 20 4.48868 20 10C20 12.3776 19.178 14.5556 17.7778 16.2665C17.7336 16.3333 17.6893 16.4002 17.6224 16.4444C15.8004 18.6224 13.0668 20 9.99992 20ZM9.99992 11.5998C12.6224 11.5998 15.0884 12.5998 16.9557 14.4002C17.7552 13.1337 18.2222 11.6224 18.2222 9.99998C18.2222 5.46708 14.5329 1.77773 9.99996 1.77773C5.46706 1.77773 1.77772 5.46708 1.77772 9.99998C1.77772 11.6224 2.24474 13.1338 3.04421 14.4002C4.91139 12.5998 7.37747 11.5998 9.99992 11.5998ZM9.99992 9.99993C8.15529 9.99993 6.66658 8.51122 6.66658 6.66659C6.66658 4.82196 8.15529 3.33325 9.99992 3.33325C11.8445 3.33325 13.3333 4.82196 13.3333 6.66659C13.3333 8.51122 11.8445 9.99993 9.99992 9.99993Z" fill="#C51A1A"/>
</svg>
