<svg width="24" height="24" viewBox="0 0 24 24" fill="none" xmlns="http://www.w3.org/2000/svg">
<path d="M6.5 22H16.5C17.875 22 19 20.875 19 19.5V12C19 10.625 17.875 9.5 16.5 9.5V7C16.5 4.23752 14.2625 2 11.5 2C8.73752 2 6.5 4.23752 6.5 7V9.5C5.125 9.5 4 10.625 4 12V19.5C4 20.875 5.125 22 6.5 22ZM11.5 17.6248C10.4625 17.6248 9.625 16.7873 9.625 15.7498C9.625 14.7123 10.4625 13.8748 11.5 13.8748C12.5375 13.8748 13.375 14.7123 13.375 15.7498C13.375 16.7873 12.5375 17.6248 11.5 17.6248ZM9 7C9 5.625 10.125 4.5 11.5 4.5C12.875 4.5 14 5.625 14 7V9.5H9V7Z" fill="#264794" fill-opacity="0.3"/>
</svg>
