<svg width="24" height="24" viewBox="0 0 24 24" fill="none" xmlns="http://www.w3.org/2000/svg">
<path fill-rule="evenodd" clip-rule="evenodd" d="M2.84653 5.43662C3.21707 5.15536 3.67243 5 4.14296 5H19.8572C20.3278 5 20.7831 5.15536 21.1537 5.43662L12.0001 11.2947L2.84653 5.43662ZM21.9375 6.63038C21.9786 6.79734 22 6.96878 22 7.14288V17.1429C22 17.7116 21.7741 18.2563 21.3723 18.6581C20.9705 19.0598 20.4259 19.2857 19.8571 19.2857H4.14286C3.5741 19.2857 3.02946 19.0598 2.62768 18.6581C2.2259 18.2563 2 17.7116 2 17.1429V7.14288C2 6.96877 2.02143 6.79735 2.0625 6.63038L11.6152 12.7447C11.85 12.8947 12.15 12.8947 12.3848 12.7447L21.9375 6.63038Z" fill="#264794" fill-opacity="0.3"/>
</svg>
