<svg width="17" height="20" viewBox="0 0 17 20" fill="none" xmlns="http://www.w3.org/2000/svg">
<path d="M5.93331 0.445542C5.76439 0.698393 5.76439 1.05039 5.76439 1.75438C5.76439 2.45837 5.76439 2.81037 5.93331 3.06322C6.00649 3.17268 6.10043 3.26666 6.2099 3.33981C6.46283 3.50876 6.81481 3.50876 7.51877 3.50876H9.02252C9.72648 3.50876 10.0785 3.50876 10.3314 3.33981C10.4409 3.26666 10.5348 3.17268 10.608 3.06322C10.7769 2.81037 10.7769 2.45837 10.7769 1.75438C10.7769 1.05039 10.7769 0.698393 10.608 0.445542C10.5348 0.336079 10.4409 0.242094 10.3314 0.168952C10.0785 -1.49385e-08 9.72648 0 9.02252 0H7.51877C6.81481 0 6.46283 -1.49385e-08 6.2099 0.168952C6.10043 0.242094 6.00649 0.336079 5.93331 0.445542Z" fill="#264794" fill-opacity="0.3"/>
<path d="M8.27065 8.22047C7.57852 8.22047 7.01752 8.78157 7.01752 9.4736C7.01752 10.1657 7.57852 10.7267 8.27065 10.7267C8.96277 10.7267 9.52377 10.1657 9.52377 9.4736C9.52377 8.78157 8.96277 8.22047 8.27065 8.22047Z" fill="#264794" fill-opacity="0.3"/>
<path fill-rule="evenodd" clip-rule="evenodd" d="M4.70934 1.4724C4.70648 1.61415 4.70649 1.76493 4.70651 1.92197V1.98824C4.70648 2.31171 4.70645 2.6087 4.73149 2.8548C4.75866 3.12184 4.8214 3.41111 5.00218 3.68166C5.13017 3.87323 5.29465 4.0377 5.48621 4.1657C5.75676 4.34648 6.04599 4.40922 6.31306 4.43639C6.55917 4.46142 6.85611 4.4614 7.17962 4.46137H9.30623C9.62974 4.4614 9.92668 4.46142 10.1728 4.43639C10.4399 4.40922 10.7292 4.34648 10.9997 4.1657C11.1912 4.0377 11.3557 3.87323 11.4838 3.68166C11.6645 3.41111 11.7273 3.12185 11.7544 2.8548C11.7795 2.60867 11.7794 2.31171 11.7794 1.9882V1.92201C11.7794 1.76434 11.7794 1.61296 11.7765 1.47071C12.2977 1.48603 12.7627 1.51516 13.1747 1.57054C14.077 1.69186 14.8367 1.9514 15.4402 2.55483C16.0436 3.15825 16.3032 3.91802 16.4245 4.82038C16.5413 5.68951 16.5413 6.79458 16.5413 8.16555V13.2881C16.5413 14.6592 16.5413 15.7642 16.4245 16.6334C16.3032 17.5357 16.0436 18.2955 15.4402 18.8989C14.8367 19.5024 14.077 19.7619 13.1747 19.8832C12.3055 20.0001 11.2005 20.0001 9.82944 20H6.71185C5.34087 20.0001 4.23579 20.0001 3.36665 19.8832C2.46429 19.7619 1.70453 19.5024 1.1011 18.8989C0.497673 18.2955 0.238135 17.5357 0.116812 16.6334C-3.96466e-05 15.7642 -1.95248e-05 14.6592 5.25266e-07 13.2881V8.16565C-1.95248e-05 6.7946 -3.96466e-05 5.68952 0.116812 4.82038C0.238135 3.91802 0.497673 3.15825 1.1011 2.55483C1.70453 1.9514 2.46429 1.69186 3.36665 1.57054C3.76396 1.51713 4.21056 1.48814 4.70934 1.4724ZM5.51376 9.47372C5.51376 7.95112 6.74805 6.71687 8.27065 6.71687C9.79325 6.71687 11.0275 7.95112 11.0275 9.47372C11.0275 10.9963 9.79325 12.2306 8.27065 12.2306C6.74805 12.2306 5.51376 10.9963 5.51376 9.47372ZM6.92268 14.6508C6.0887 14.8891 5.51376 15.6513 5.51376 16.5187V16.9925C5.51376 17.4077 5.17713 17.7444 4.76189 17.7444C4.34664 17.7444 4.01001 17.4077 4.01001 16.9925V16.5187C4.01001 14.98 5.03006 13.6277 6.50955 13.2049C7.66062 12.8761 8.88067 12.8761 10.0317 13.2049C11.5112 13.6277 12.5313 14.98 12.5313 16.5187V16.9925C12.5313 17.4077 12.1946 17.7444 11.7794 17.7444C11.3642 17.7444 11.0275 17.4077 11.0275 16.9925V16.5187C11.0275 15.6513 10.4526 14.8891 9.61861 14.6508C8.73761 14.3991 7.80368 14.3991 6.92268 14.6508Z" fill="#264794" fill-opacity="0.3"/>
</svg>
