<svg width="110" height="105" viewBox="0 0 110 105" fill="none" xmlns="http://www.w3.org/2000/svg">
<path opacity="0.4" d="M39.1956 70.0575V62.0073C39.1956 61.0325 38.4182 60.2451 37.4557 60.2451H29.8409V52.5324C29.8409 51.5576 29.0635 50.7702 28.101 50.7702H20.153C19.1905 50.7702 18.4131 51.5575 18.4131 52.5324V60.2451H10.7982C9.8358 60.2451 9.05839 61.0324 9.05839 62.0073V70.0575C9.05839 71.0323 9.83575 71.8197 10.7982 71.8197H18.4131V79.5324C18.4131 80.5072 19.1905 81.2946 20.153 81.2946H28.101C29.0635 81.2946 29.8409 80.5072 29.8409 79.5324V71.8197H37.4557C38.4182 71.8197 39.1956 71.0323 39.1956 70.0575ZM35.716 68.2952H28.1012C27.1387 68.2952 26.3613 69.0826 26.3613 70.0575V77.7702H21.8875V70.0575C21.8875 69.0826 21.1102 68.2952 20.1477 68.2952H12.5328V63.764H20.1477C21.1101 63.764 21.8875 62.9767 21.8875 62.0018V54.2891H26.3613V62.0018C26.3613 62.9766 27.1387 63.764 28.1012 63.764H35.716V68.2952ZM92.7647 71.4821L105.118 58.9703C111.627 52.3877 111.627 41.724 105.118 35.1301C98.6081 28.5368 88.0794 28.5368 81.5691 35.1301L62.8331 54.1123V42.4522C62.8331 37.3211 61.0194 32.3079 57.7302 28.3389C53.3252 23.0097 50.6388 18.4464 49.9883 15.2487C51.7174 14.5417 52.9444 12.8278 52.9444 10.8192V4.78299C52.9444 2.14777 50.8291 0 48.222 0H14.6164C12.0146 0 9.89407 2.14242 9.89407 4.78299V10.8192C9.89407 12.8223 11.1209 14.5363 12.8501 15.2487C12.5328 16.7806 11.7449 18.6445 10.4863 20.8083C9.16959 23.0739 7.35577 25.6127 5.10827 28.3389C1.81376 32.3131 0 37.3211 0 42.4522V88.139C0 97.437 7.46678 105 16.6472 105C16.7476 105 80.9344 104.989 90.3105 105C99.4906 105 106.958 97.4373 106.958 88.139C106.958 79.687 100.781 72.6861 92.7594 71.4822L92.7647 71.4821ZM52.4688 71.2785C53.1245 69.511 54.1399 67.8989 55.4831 66.5438C59.6289 62.3447 65.2185 56.6833 68.5288 53.3251L86.2549 71.279L52.4688 71.2785ZM84.033 37.6209C89.1783 32.4041 97.5123 32.4041 102.658 37.6209C107.798 42.8324 107.809 51.2681 102.658 56.4797L89.6069 69.6984L70.9874 50.8396L84.0331 37.6262L84.033 37.6209ZM13.379 4.78321C13.379 4.08692 13.9343 3.52453 14.6218 3.52453H48.2274C48.9149 3.52453 49.4701 4.08692 49.4701 4.78321V10.8194C49.4701 11.5157 48.9149 12.0781 48.2274 12.0781H48.1005H48.0899H14.7482H14.7377H14.616C13.9286 12.0781 13.3733 11.5157 13.3733 10.8194V4.78321H13.379ZM7.77896 30.5992C10.1533 27.723 12.0729 25.0289 13.4848 22.5973C15.0341 19.93 15.9754 17.6269 16.3298 15.6023H46.5145C47.202 19.5229 50.0682 24.5522 55.0707 30.604C57.8364 33.9409 59.3647 38.1507 59.3647 42.457V57.6356L53.0295 64.0522C51.0094 66.0928 49.5605 68.5888 48.7937 71.3364C48.6139 71.3471 48.4342 71.3471 48.2543 71.3632V51.0043C48.2543 46.8159 44.8911 43.404 40.761 43.404L3.48533 43.4094C3.53821 43.0827 2.91422 36.468 7.77931 30.5976L7.77896 30.5992ZM33.5694 85.1189H3.48484V46.9296H40.7605C42.9762 46.9296 44.7742 48.756 44.7742 51.0057V72.1145C39.0365 74.0159 34.6739 78.9917 33.574 85.1137L33.5694 85.1189ZM16.6474 101.477C9.55604 101.477 3.77089 95.7618 3.5065 88.6436H33.3162C33.4696 93.8658 35.9708 98.4881 39.7942 101.477H16.6474ZM36.8265 86.9083V86.8869V86.8815C37.4558 80.1222 43.0929 74.8089 49.9305 74.8089H68.3808V101.482H49.9305C42.2786 101.482 36.1073 94.819 36.8265 86.9135V86.9083ZM90.3108 101.477H71.8604V74.8038H90.3108C97.5714 74.8038 103.478 80.7865 103.478 88.1404C103.478 95.4943 97.5714 101.477 90.3108 101.477Z" fill="#4D6887"/>
</svg>
