<svg width="24" height="24" viewBox="0 0 24 24" fill="none" xmlns="http://www.w3.org/2000/svg">
<path d="M5.51348 2.00023C4.98112 2.01182 4.75082 2.17686 4.43241 2.54076L2.54053 4.7029C2.1451 5.15483 2 5.85953 2 6.59477C2 9.0496 3.84676 13.0354 7.40535 16.5947C10.9646 20.1533 14.9504 22 17.4052 22C18.1405 22 18.8452 21.8549 19.2971 21.4595L21.4593 19.5676C21.8231 19.2492 21.9882 19.0189 21.9998 18.4865C22.0083 18.0945 21.7759 17.7221 21.4593 17.4055L18.4863 14.4325C18.1527 14.0989 17.8659 13.892 17.4052 13.892C16.9261 13.892 16.6194 14.1373 16.3242 14.4325L15.2431 15.5136C14.7479 15.9906 14.378 16.0269 13.8918 15.7839L8.21615 10.1083C7.97307 9.62201 8.00943 9.25215 8.48642 8.75691L9.56749 7.67584C9.86273 7.3806 10.108 7.07393 10.108 6.59477C10.108 6.13406 9.90115 5.84737 9.56749 5.5137L6.59455 2.54076C6.27788 2.2241 5.90551 1.9917 5.51348 2.00023Z" fill="#C51A1A"/>
</svg>
