<svg width="20" height="20" viewBox="0 0 20 20" fill="none" xmlns="http://www.w3.org/2000/svg">
<path d="M3.51348 -0.000260924C2.98112 0.0113335 2.75082 0.17637 2.43241 0.540274L0.540535 2.70241C0.1451 3.15434 0 3.85904 0 4.59429C0 7.04911 1.84676 11.0349 5.40535 14.5942C8.9646 18.1528 12.9504 19.9995 15.4052 19.9995C16.1405 19.9995 16.8452 19.8544 17.2971 19.459L19.4593 17.5671C19.8231 17.2487 19.9882 17.0184 19.9998 16.486C20.0083 16.094 19.7759 15.7217 19.4593 15.405L16.4863 12.432C16.1527 12.0984 15.8659 11.8915 15.4052 11.8915C14.9261 11.8915 14.6194 12.1368 14.3242 12.432L13.2431 13.5131C12.7479 13.9901 12.378 14.0265 11.8918 13.7834L6.21615 8.10776C5.97307 7.62152 6.00943 7.25166 6.48642 6.75642L7.56749 5.67535C7.86273 5.38011 8.10802 5.07344 8.10802 4.59429C8.10802 4.13357 7.90115 3.84688 7.56749 3.51322L4.59455 0.540274C4.27788 0.22361 3.90551 -0.00879056 3.51348 -0.000260924Z" fill="#264794" fill-opacity="0.3"/>
</svg>
