<svg width="15" height="20" viewBox="0 0 15 20" fill="none" xmlns="http://www.w3.org/2000/svg">
<path opacity="0.4" d="M7.35849 0C3.30075 0 0 3.35547 0 7.48047C0 8.82422 0.622494 10.5195 1.89822 12.6641C2.95877 14.4453 4.27292 16.2148 5.42953 17.7734C5.96364 18.4922 6.46702 19.1719 6.85512 19.7344C6.97039 19.9023 7.15868 20 7.35849 20C7.5583 20 7.74659 19.9023 7.86187 19.7344C8.24996 19.1719 8.75334 18.4922 9.28745 17.7734C10.4441 16.2148 11.7544 14.4453 12.8188 12.6641C14.0945 10.5195 14.717 8.82422 14.717 7.48047C14.717 3.35547 11.4162 0 7.35849 0ZM7.35849 10.9375C5.48332 10.9375 3.95783 9.38672 3.95783 7.48047C3.95783 5.57422 5.48332 4.02344 7.35849 4.02344C9.23366 4.02344 10.7592 5.57422 10.7592 7.48047C10.7592 9.38672 9.23366 10.9375 7.35849 10.9375Z" fill="#264794"/>
</svg>
